Music_Mountain:
	musicheader 3, 1, Music_Mountain_Ch1
	musicheader 1, 2, Music_Mountain_Ch2
	musicheader 1, 3, Music_Mountain_Ch3

Music_Mountain_Ch1:
	tempo $112
	volume $77
	stereopanning $77
	octave 3
	notetype $C, $57
	note D_, 2
	octave 2
	note G_, 2
	note A#, 2
	note D_, 2
	octave 3
	note D_, 2
	octave 2
	note G_, 2
	note A#, 2
	note D_, 2
	octave 3
	note D_, 2
	octave 2
	note G_, 2
	note A#, 2
	note D_, 2
	octave 3
	note D_, 2
	octave 2
	note G_, 2
Music_Mountain_Ch1_loop:
	note A#, 2
	note D_, 2
	octave 3
	note D_, 2
	octave 2
	note G_, 2
	note A#, 2
	note D_, 2
	octave 3
	note C_, 2
	octave 2
	note F_, 2
	note A_, 2
	note C_, 2
	octave 3
	note D_, 2
	octave 2
	note G_, 2
	note A#, 2
	note D_, 2
	octave 3
	note D_, 2
	octave 2
	note G_, 2
	note A#, 2
	note D_, 2
	octave 3
	note C_, 2
	octave 2
	note F_, 2
	note A_, 2
	note C_, 2
	octave 3
	note C_, 2
	octave 2
	note F_, 2
	note A_, 2
	note C_, 2
	octave 3
	note D_, 2
	octave 2
	note G_, 2
	note A#, 2
	note D_, 2
	octave 3
	note D_, 2
	octave 2
	note G_, 2
	note A#, 2
	note D_, 2
	octave 3
	note D_, 2
	octave 2
	note G_, 2
	note A#, 2
	note D_, 2
	octave 3
	note C_, 2
	octave 2
	note F_, 2
	note A_, 2
	note C_, 2
	octave 3
	note D_, 2
	octave 2
	note G_, 2
	note A#, 2
	note D_, 2
	octave 3
	note D_, 2
	octave 2
	note G_, 2
	note A#, 2
	note D_, 2
	octave 3
	note C_, 2
	octave 2
	note F_, 2
	note A_, 2
	note C_, 2
	octave 3
	note C_, 2
	octave 2
	note F_, 2
	note A_, 2
	note C_, 2
	octave 3
	note E_, 2
	octave 2
	note A_, 2
	octave 3
	note C_, 2
	octave 2
	note E_, 2
	octave 3
	note F_, 2
	octave 2
	note A#, 2
	octave 3
	note D_, 2
	octave 2
	note F_, 2
	octave 3
	note D_, 2
	octave 2
	note G_, 2
	note A#, 2
	note D_, 2
	octave 3
	note D_, 2
	octave 2
	note G_, 2
	note A#, 2
	note D_, 2
	note A_, 2
	note D_, 2
	note F_, 2
	octave 1
	note A_, 2
	octave 2
	note A_, 2
	note D_, 2
	note F_, 2
	octave 1
	note A_, 2
	octave 3
	note F_, 2
	octave 2
	note A#, 2
	octave 3
	note D_, 2
	octave 2
	note F_, 2
	octave 3
	note E_, 2
	octave 2
	note A_, 2
	octave 3
	note C_, 2
	octave 2
	note E_, 2
	octave 3
	note D_, 2
	octave 2
	note G_, 2
	note A#, 2
	note D_, 2
	octave 3
	note D_, 2
	octave 2
	note G_, 2
	loopchannel 0, Music_Mountain_Ch1_loop

Music_Mountain_Ch2:
	notetype $C, $00
	note __, 16
	note __, 12
Music_Mountain_Ch2_loop:
	dutycycle 1
	intensity $97
	octave 3
	note D_, 2
	note F_, 2
	note G_, 6
	note A#, 2
	octave 4
	note C_, 2
	note D_, 1
	note C_, 1
	octave 3
	note A#, 2
	note A_, 2
	note G_, 8
	note __, 2
	note D_, 2
	note G_, 2
	note A_, 2
	note A_, 8
	note __, 2
	note A#, 2
	octave 4
	note C_, 2
	octave 3
	note A#, 1
	note A_, 1
	note G_, 8
	note __, 2
	note D_, 2
	note D_, 2
	note F_, 2
	note G_, 2
	note G_, 4
	note __, 2
	note A#, 2
	octave 4
	note C_, 1
	octave 3
	note A#, 1
	note A_, 2
	note F_, 2
	note G_, 8
	note __, 2
	note D_, 2
	note G_, 2
	note A_, 2
	note A_, 2
	note A_, 4
	note __, 2
	note A#, 2
	octave 4
	note C_, 1
	octave 3
	note A#, 1
	note A_, 2
	note G_, 2
	note A_, 8
	note __, 2
	note A#, 2
	octave 4
	note C_, 2
	octave 3
	note A_, 2
	octave 4
	note D_, 8
	note __, 2
	octave 3
	note A#, 2
	octave 4
	note C_, 3
	octave 3
	note A#, 1
	note A_, 8
	note __, 2
	note D_, 2
	note F_, 2
	note A_, 2
	note A#, 2
	note A#, 6
	note __, 4
	note A_, 3
	note F_, 1
	note G_, 12
	loopchannel 0, Music_Mountain_Ch2_loop

Music_Mountain_Ch3:
	notetype $C, $00
	note __, 16
	note __, 12
Music_Mountain_Ch3_loop:
	dutycycle 7
	intensity $27
	octave 1
	note D_, 2
	note F_, 2
	note G_, 6
	note A#, 2
	octave 2
	note C_, 2
	note D_, 1
	note C_, 1
	octave 1
	note A#, 2
	note A_, 2
	note G_, 10
	note D_, 2
	note G_, 2
	note A_, 2
	note A_, 10
	note A#, 2
	octave 2
	note C_, 2
	octave 1
	note A#, 1
	note A_, 1
	note G_, 10
	note D_, 2
	note D_, 2
	note F_, 2
	note G_, 2
	note G_, 6
	note A#, 2
	octave 2
	note C_, 1
	octave 1
	note A#, 1
	note A_, 2
	note F_, 2
	note G_, 10
	note D_, 2
	note G_, 2
	note A_, 2
	note A_, 2
	note A_, 6
	note A#, 2
	octave 2
	note C_, 1
	octave 1
	note A#, 1
	note A_, 2
	note G_, 2
	note A_, 10
	note A#, 2
	octave 2
	note C_, 2
	octave 1
	note A_, 2
	octave 2
	note D_, 10
	octave 1
	note A#, 2
	octave 2
	note C_, 3
	octave 1
	note A#, 1
	note A_, 10
	note D_, 2
	note F_, 2
	note A_, 2
	note A#, 2
	note A#, 10
	note A_, 3
	note F_, 1
	note G_, 12
	loopchannel 0, Music_Mountain_Ch3_loop

