Music_XVZ:
	musicheader 4, 1, Music_XVZ_Ch1
	musicheader 1, 2, Music_XVZ_Ch2
	musicheader 1, 3, Music_XVZ_Ch3
	musicheader 1, 4, Music_XVZ_Ch4

Music_XVZ_Ch1:
	tempo $90
	volume $77
	stereopanning $77
	notetype $C, $00
	note __, 16
Music_XVZ_Ch1_loop:
	dutycycle 3
	notetype $C, $A1
	vibrato $00, $13
	octave 2
	note B_, 2
	note __, 14
	note G_, 1
	note B_, 2
	note __, 13
	note B_, 2
	note __, 14
	note G_, 1
	note B_, 2
	note __, 13
	dutycycle 1
	intensity $F7
	octave 3
	note E_, 8
	note D_, 8
	note C_, 8
	note D_, 4
	note C_, 4
	note E_, 8
	note D_, 8
	note C_, 8
	note D_, 4
	note C_, 4
	note __, 16
	dutycycle 2
	intensity $F1
	octave 1
	note E_, 1
	note E_, 1
	note E_, 1
	note E_, 1
	note E_, 1
	note E_, 1
	note E_, 1
	note E_, 1
	note G_, 1
	note E_, 1
	note E_, 1
	note E_, 1
	note E_, 1
	note E_, 1
	note E_, 1
	note E_, 1
	note A_, 1
	note E_, 1
	note E_, 1
	note E_, 1
	note E_, 1
	note E_, 1
	note E_, 1
	note E_, 1
	note G_, 1
	note E_, 1
	note E_, 1
	note E_, 1
	note F#, 1
	note D_, 1
	note D_, 1
	note D_, 1
	note E_, 1
	note E_, 1
	note E_, 1
	note E_, 1
	note E_, 1
	note E_, 1
	note E_, 1
	note E_, 1
	note G_, 1
	note E_, 1
	note E_, 1
	note E_, 1
	note E_, 1
	note E_, 1
	note E_, 1
	note E_, 1
	note A_, 1
	note E_, 1
	note E_, 1
	note E_, 1
	note E_, 1
	note E_, 1
	note E_, 1
	note E_, 1
	note G_, 1
	note E_, 1
	note E_, 1
	note E_, 1
	note F#, 1
	note D_, 1
	note D_, 1
	note D_, 1
	note E_, 1
	note E_, 1
	note E_, 1
	note E_, 1
	note E_, 1
	note E_, 1
	note E_, 1
	note E_, 1
	note G_, 1
	note E_, 1
	note E_, 1
	note E_, 1
	note E_, 1
	note E_, 1
	note E_, 1
	note E_, 1
	note A_, 1
	note E_, 1
	note E_, 1
	note E_, 1
	note E_, 1
	note E_, 1
	note E_, 1
	note E_, 1
	note G_, 1
	note E_, 1
	note E_, 1
	note E_, 1
	note F#, 1
	note D_, 1
	note D_, 1
	note D_, 1
	note E_, 1
	note E_, 1
	note E_, 1
	note E_, 1
	note E_, 1
	note E_, 1
	note E_, 1
	note E_, 1
	note G_, 1
	note E_, 1
	note E_, 1
	note E_, 1
	note E_, 1
	note E_, 1
	note E_, 1
	note E_, 1
	note A_, 1
	note E_, 1
	note E_, 1
	note E_, 1
	note E_, 1
	note E_, 1
	note E_, 1
	note E_, 1
	note G_, 1
	note E_, 1
	note E_, 1
	note E_, 1
	note F#, 1
	note D_, 1
	note D_, 1
	note D_, 1
	octave 3
	note C_, 1
	note C_, 1
	note C_, 1
	note C_, 1
	note C_, 1
	note C_, 1
	note C_, 1
	note C_, 1
	note C_, 1
	note C_, 1
	note C_, 1
	note D_, 1
	note D_, 1
	note D_, 1
	note C_, 1
	note C_, 1
	octave 2
	note B_, 1
	note B_, 1
	note B_, 1
	note B_, 1
	note B_, 1
	note B_, 1
	note B_, 1
	note B_, 1
	note B_, 1
	note B_, 1
	note B_, 1
	octave 3
	note C_, 1
	note C_, 1
	note C_, 1
	octave 2
	note B_, 1
	note B_, 1
	octave 3
	note C_, 1
	note C_, 1
	note C_, 1
	note C_, 1
	note C_, 1
	note C_, 1
	note C_, 1
	note C_, 1
	note C_, 1
	note C_, 1
	note C_, 1
	note D_, 1
	note D_, 1
	note D_, 1
	note C_, 1
	note C_, 1
	octave 2
	note B_, 1
	note B_, 1
	note B_, 1
	note B_, 1
	note B_, 1
	note B_, 1
	note B_, 1
	note B_, 1
	note B_, 1
	note B_, 1
	note B_, 1
	octave 3
	note C_, 1
	note C_, 1
	note C_, 1
	octave 2
	note B_, 1
	note B_, 1
	octave 3
	note C_, 1
	note C_, 1
	note C_, 1
	note C_, 1
	note C_, 1
	note C_, 1
	note C_, 1
	note C_, 1
	note C_, 1
	note C_, 1
	note C_, 1
	note D_, 1
	note D_, 1
	note D_, 1
	note C_, 1
	note C_, 1
	octave 2
	note B_, 1
	note B_, 1
	note B_, 1
	note B_, 1
	note B_, 1
	note B_, 1
	note B_, 1
	note B_, 1
	note B_, 1
	note B_, 1
	note B_, 1
	octave 3
	note C_, 1
	note C_, 1
	note C_, 1
	octave 2
	note B_, 1
	note B_, 1
	octave 3
	note C_, 1
	note C_, 1
	note C_, 1
	note C_, 1
	note C_, 1
	note C_, 1
	note C_, 1
	note C_, 1
	note C_, 1
	note C_, 1
	note C_, 1
	note D_, 1
	note D_, 1
	note D_, 1
	note C_, 1
	note C_, 1
	octave 2
	note B_, 1
	note B_, 1
	note B_, 1
	note B_, 1
	note B_, 1
	note B_, 1
	note B_, 1
	note B_, 1
	note B_, 1
	note B_, 1
	note B_, 1
	octave 3
	note C_, 1
	note C_, 1
	note C_, 1
	octave 2
	note B_, 1
	note B_, 1
	dutycycle 1
	intensity $F7
	vibrato $01, $13
	octave 3
	note B_, 3
	note E_, 2
	note G_, 1
	note A_, 2
	note B_, 3
	note E_, 2
	note G_, 1
	note A_, 2
	note B_, 3
	note G_, 3
	note B_, 2
	octave 4
	notetype $E, $F7
	note D_, 3
	notetype $6, $F7
	note __, 1
	note C_, 4
	octave 3
	note B_, 4
	octave 4
	note E_, 6
	note F#, 6
	note G_, 4
	note E_, 7
	note __, 1
	note D_, 4
	note C_, 4
	octave 3
	note B_, 6
	octave 4
	note C_, 6
	note D_, 4
	octave 3
	note A_, 14
	note __, 2
	note B_, 6
	note E_, 4
	note G_, 2
	note A_, 4
	note B_, 6
	note E_, 4
	note G_, 2
	note A_, 4
	note B_, 6
	octave 4
	note D_, 6
	note C_, 4
	octave 3
	note B_, 7
	note __, 1
	note A_, 4
	note B_, 4
	octave 4
	note E_, 6
	note F#, 6
	note G_, 4
	note E_, 7
	note __, 1
	note D_, 4
	note C_, 4
	octave 3
	note B_, 6
	note A_, 6
	note G_, 4
	octave 4
	note D_, 14
	note __, 2
	note E_, 14
	note __, 2
	octave 3
	note G_, 6
	octave 4
	note C_, 6
	note E_, 4
	note D#, 16
	intensity $F1
	vibrato $00, $13
	note E_, 2
	note F_, 2
	note E_, 2
	note D_, 2
	note E_, 2
	note D_, 2
	note C_, 2
	octave 3
	note B_, 2
	loopchannel 0, Music_XVZ_Ch1_loop

Music_XVZ_Ch2:
	notetype $C, $00
	note __, 16
Music_XVZ_Ch2_loop:
	dutycycle 1
	notetype $C, $F1
	vibrato $00, $13
	octave 4
	note E_, 1
	note __, 15
	octave 3
	note B_, 1
	octave 4
	note E_, 1
	note __, 14
	note E_, 1
	note __, 15
	octave 3
	note B_, 1
	octave 4
	note E_, 1
	note __, 14
	intensity $F7
	note E_, 3
	note B_, 3
	note A_, 3
	note G_, 3
	note F#, 2
	note D_, 2
	note E_, 3
	note B_, 3
	note A_, 3
	note B_, 3
	octave 5
	note C_, 1
	octave 4
	note B_, 1
	note A_, 2
	note E_, 3
	note B_, 3
	note A_, 3
	note G_, 3
	note F#, 2
	note D_, 2
	note E_, 3
	note B_, 3
	note A_, 3
	note B_, 3
	octave 5
	note C_, 1
	octave 4
	note B_, 1
	note A_, 2
	intensity $F1
	note B_, 1
	note B_, 1
	note B_, 1
	note B_, 1
	note B_, 1
	note B_, 1
	note A_, 1
	note B_, 1
	note __, 8
	intensity $F7
	octave 3
	note E_, 6
	note E_, 1
	note F#, 1
	note G_, 8
	note A_, 3
	note G_, 3
	note F#, 2
	note G_, 4
	note F#, 1
	note G_, 1
	note F#, 2
	note E_, 6
	note E_, 1
	note F#, 1
	note G_, 6
	note G_, 2
	note B_, 3
	note A_, 3
	note G_, 2
	note A_, 2
	note G_, 2
	note F#, 1
	note G_, 1
	note A_, 2
	note E_, 6
	note E_, 1
	note F#, 1
	note G_, 8
	note A_, 3
	note G_, 3
	note F#, 2
	note G_, 4
	note F#, 1
	note G_, 1
	note F#, 2
	note E_, 6
	note E_, 1
	note F#, 1
	note G_, 6
	note G_, 2
	note B_, 3
	note A_, 3
	note G_, 4
	note F#, 2
	note G_, 2
	note A_, 2
	note B_, 8
	note G_, 8
	octave 4
	note A_, 3
	note G_, 3
	note F#, 3
	note F#, 1
	note D_, 2
	octave 3
	note B_, 2
	octave 4
	note D_, 2
	note E_, 8
	octave 3
	note E_, 1
	note F#, 1
	note G_, 1
	note A_, 1
	note B_, 1
	octave 4
	note C_, 1
	note E_, 1
	note B_, 1
	note A_, 1
	note A_, 1
	note __, 1
	notetype $9, $F7
	note G_, 2
	note __, 2
	notetype $E, $F7
	note F#, 3
	notetype $6, $F7
	note __, 1
	octave 5
	note D_, 12
	note E_, 16
	octave 4
	note G_, 8
	octave 5
	note E_, 8
	note D_, 2
	note D_, 2
	note __, 2
	note C_, 3
	note __, 3
	octave 4
	note B_, 4
	note A_, 4
	note B_, 4
	octave 5
	note C_, 2
	note D_, 6
	note C_, 16
	octave 4
	note C_, 2
	note D_, 2
	note E_, 2
	note F#, 2
	note G_, 2
	note A_, 2
	octave 5
	note C_, 2
	note E_, 2
	note D_, 16
	note D#, 16
	octave 4
	note B_, 6
	note E_, 4
	note G_, 2
	note A_, 4
	note B_, 6
	note E_, 4
	note G_, 2
	note A_, 4
	note B_, 6
	note G_, 6
	note B_, 4
	octave 5
	note D_, 7
	note __, 1
	note C_, 4
	octave 4
	note B_, 4
	octave 5
	note E_, 6
	note F#, 6
	note G_, 4
	note E_, 7
	note __, 1
	note D_, 4
	note C_, 4
	octave 4
	note B_, 6
	octave 5
	note C_, 6
	note D_, 4
	octave 4
	note A_, 14
	note __, 2
	note B_, 6
	note E_, 4
	note G_, 2
	note A_, 4
	note B_, 6
	note E_, 4
	note G_, 2
	note A_, 4
	note B_, 6
	octave 5
	note D_, 6
	note C_, 4
	octave 4
	note B_, 7
	note __, 1
	note A_, 4
	note B_, 4
	octave 5
	note E_, 6
	note F#, 6
	note G_, 4
	note E_, 7
	note __, 1
	note D_, 4
	note C_, 4
	octave 4
	note B_, 6
	note A_, 6
	note G_, 4
	octave 5
	note D_, 14
	note __, 2
	note E_, 14
	note __, 2
	octave 4
	note G_, 6
	octave 5
	note C_, 6
	note E_, 4
	note D#, 16
	intensity $F1
	octave 3
	note E_, 2
	note F_, 2
	note E_, 2
	note D_, 2
	note E_, 2
	note D_, 2
	note C_, 2
	octave 2
	note B_, 2
	loopchannel 0, Music_XVZ_Ch2_loop

Music_XVZ_Ch3:
	dutycycle 7
	octave 1
	notetype $C, $17
	note E_, 1
	note G_, 1
	note A_, 1
	note A#, 1
	octave 2
	note C_, 1
	note D_, 1
	note E_, 1
	note F_, 1
	note G_, 1
	note F_, 1
	note E_, 1
	note C_, 1
	octave 1
	note A#, 1
	note G_, 1
	note F#, 1
	note F_, 1
Music_XVZ_Ch3_loop:
	notetype $6, $17
	note E_, 1
	note __, 1
	note E_, 1
	note __, 1
	note E_, 1
	note __, 1
	note E_, 1
	note __, 1
	note E_, 1
	note __, 1
	note E_, 1
	note __, 1
	note E_, 1
	note __, 1
	note E_, 1
	note __, 1
	note E_, 1
	note __, 1
	note E_, 1
	note __, 1
	note E_, 1
	note __, 1
	note G_, 6
	note A_, 4
	note E_, 1
	note __, 1
	note E_, 1
	note __, 1
	note E_, 1
	note __, 1
	note E_, 1
	note __, 1
	note E_, 1
	note __, 1
	note E_, 1
	note __, 1
	note E_, 1
	note __, 1
	note E_, 1
	note __, 1
	note D_, 6
	note A_, 6
	note G_, 4
	note E_, 1
	note __, 1
	note E_, 1
	note __, 1
	note E_, 1
	note __, 1
	note E_, 1
	note __, 1
	note E_, 1
	note __, 1
	note E_, 1
	note __, 1
	note E_, 1
	note __, 1
	note E_, 1
	note __, 1
	note E_, 1
	note __, 1
	note E_, 1
	note __, 1
	note E_, 1
	note __, 1
	note G_, 6
	note A_, 4
	note E_, 1
	note __, 1
	note E_, 1
	note __, 1
	note E_, 1
	note __, 1
	note E_, 1
	note __, 1
	note E_, 1
	note __, 1
	note E_, 1
	note __, 1
	note E_, 1
	note __, 1
	note E_, 1
	note __, 1
	note D_, 6
	note A_, 6
	note G_, 4
	note E_, 1
	note __, 1
	note E_, 1
	note __, 1
	note E_, 1
	note __, 1
	note E_, 1
	note __, 1
	note E_, 1
	note __, 1
	note E_, 1
	note __, 1
	note E_, 1
	note __, 1
	note E_, 1
	note __, 1
	note E_, 1
	note __, 1
	note E_, 1
	note __, 1
	note E_, 1
	note __, 1
	note G_, 6
	note A_, 4
	note E_, 1
	note __, 1
	note E_, 1
	note __, 1
	note E_, 1
	note __, 1
	note E_, 1
	note __, 1
	note E_, 1
	note __, 1
	note E_, 1
	note __, 1
	note E_, 1
	note __, 1
	note E_, 1
	note __, 1
	note D_, 6
	note A_, 6
	note G_, 4
	note E_, 1
	note __, 1
	note E_, 1
	note __, 1
	note E_, 1
	note __, 1
	note E_, 1
	note __, 1
	note E_, 1
	note __, 1
	note E_, 1
	note __, 1
	note E_, 1
	note __, 1
	note E_, 1
	note __, 1
	note E_, 1
	note __, 1
	note E_, 1
	note __, 1
	note E_, 1
	note __, 1
	note G_, 6
	note A_, 4
	note E_, 1
	note __, 1
	note E_, 1
	note __, 1
	note E_, 1
	note __, 1
	note E_, 1
	note __, 1
	note E_, 1
	note __, 1
	note E_, 1
	note __, 1
	note E_, 1
	note __, 1
	note E_, 1
	note __, 1
	note D_, 6
	note A_, 6
	note G_, 4
	note B_, 1
	note __, 1
	note B_, 1
	note __, 1
	note B_, 1
	note __, 1
	note B_, 1
	note __, 1
	note B_, 1
	note __, 1
	note B_, 1
	note __, 1
	note A_, 1
	note __, 1
	note B_, 1
	note __, 9
	octave 2
	note B_, 1
	note A_, 1
	note G_, 1
	note F_, 1
	note E_, 1
	note D_, 1
	note C_, 1
	octave 1
	note B_, 1
	note E_, 1
	note __, 1
	note E_, 1
	note __, 1
	note E_, 1
	note __, 1
	note E_, 1
	note __, 1
	note E_, 1
	note __, 1
	note E_, 1
	note __, 1
	note E_, 1
	note __, 1
	note E_, 1
	note __, 1
	note G_, 1
	note __, 1
	note E_, 1
	note __, 1
	note E_, 1
	note __, 1
	note E_, 1
	note __, 1
	note E_, 1
	note __, 1
	note E_, 1
	note __, 1
	note E_, 1
	note __, 1
	note E_, 1
	note __, 1
	note A_, 1
	note __, 1
	note E_, 1
	note __, 1
	note E_, 1
	note __, 1
	note E_, 1
	note __, 1
	note E_, 1
	note __, 1
	note E_, 1
	note __, 1
	note E_, 1
	note __, 1
	note E_, 1
	note __, 1
	note G_, 1
	note __, 1
	note G_, 1
	note __, 1
	note G_, 1
	note __, 1
	note G_, 1
	note __, 1
	note F#, 1
	note __, 1
	note G_, 1
	note __, 1
	note F#, 3
	note __, 1
	note E_, 1
	note __, 1
	note E_, 1
	note __, 1
	note E_, 1
	note __, 1
	note E_, 1
	note __, 1
	note E_, 1
	note __, 1
	note E_, 1
	note __, 1
	note E_, 1
	note __, 1
	note E_, 1
	note __, 1
	note G_, 1
	note __, 1
	note E_, 1
	note __, 1
	note E_, 1
	note __, 1
	note E_, 1
	note __, 1
	note E_, 1
	note __, 1
	note E_, 1
	note __, 1
	note E_, 1
	note __, 1
	note E_, 1
	note __, 1
	note A_, 1
	note __, 1
	note E_, 1
	note __, 1
	note E_, 1
	note __, 1
	note E_, 1
	note __, 1
	note E_, 1
	note __, 1
	note E_, 1
	note __, 1
	note E_, 1
	note __, 1
	note E_, 1
	note __, 1
	note G_, 1
	note __, 1
	note G_, 1
	note __, 1
	note G_, 1
	note __, 1
	note G_, 1
	note __, 1
	note F#, 3
	note __, 1
	note D_, 3
	note __, 1
	note E_, 1
	note __, 1
	note E_, 1
	note __, 1
	note E_, 1
	note __, 1
	note E_, 1
	note __, 1
	note E_, 1
	note __, 1
	note E_, 1
	note __, 1
	note E_, 1
	note __, 1
	note E_, 1
	note __, 1
	note G_, 1
	note __, 1
	note E_, 1
	note __, 1
	note E_, 1
	note __, 1
	note E_, 1
	note __, 1
	note E_, 1
	note __, 1
	note E_, 1
	note __, 1
	note E_, 1
	note __, 1
	note E_, 1
	note __, 1
	note A_, 1
	note __, 1
	note E_, 1
	note __, 1
	note E_, 1
	note __, 1
	note E_, 1
	note __, 1
	note E_, 1
	note __, 1
	note E_, 1
	note __, 1
	note E_, 1
	note __, 1
	note E_, 1
	note __, 1
	note G_, 1
	note __, 1
	note G_, 1
	note __, 1
	note G_, 1
	note __, 1
	note G_, 1
	note __, 1
	note F#, 1
	note __, 1
	note G_, 1
	note __, 1
	note F#, 3
	note __, 1
	note E_, 1
	note __, 1
	note E_, 1
	note __, 1
	note E_, 1
	note __, 1
	note E_, 1
	note __, 1
	note E_, 1
	note __, 1
	note E_, 1
	note __, 1
	note E_, 1
	note __, 1
	note E_, 1
	note __, 1
	note G_, 1
	note __, 1
	note E_, 1
	note __, 1
	note E_, 1
	note __, 1
	note E_, 1
	note __, 1
	note E_, 1
	note __, 1
	note E_, 1
	note __, 1
	note E_, 1
	note __, 1
	note E_, 1
	note __, 1
	note A_, 1
	note __, 1
	note E_, 1
	note __, 1
	note E_, 1
	note __, 1
	note E_, 1
	note __, 1
	note E_, 1
	note __, 1
	note E_, 1
	note __, 1
	note E_, 1
	note __, 1
	note E_, 1
	note __, 1
	note G_, 1
	note __, 1
	note G_, 1
	note __, 1
	note G_, 1
	note __, 1
	note G_, 1
	note __, 1
	note F#, 3
	note __, 1
	note D_, 3
	note __, 1
	octave 2
	note C_, 1
	note __, 1
	note C_, 1
	note __, 1
	note C_, 1
	note __, 1
	note C_, 1
	note __, 1
	note C_, 1
	note __, 1
	note C_, 1
	note __, 1
	note C_, 1
	note __, 1
	note C_, 1
	note __, 1
	note C_, 1
	note __, 1
	note C_, 1
	note __, 1
	note C_, 1
	note __, 1
	note D_, 1
	note __, 1
	note D_, 1
	note __, 1
	note D_, 1
	note __, 1
	note C_, 1
	note __, 1
	note C_, 1
	note __, 1
	octave 1
	note B_, 1
	note __, 1
	note B_, 1
	note __, 1
	note B_, 1
	note __, 1
	note B_, 1
	note __, 1
	note B_, 1
	note __, 1
	note B_, 1
	note __, 1
	note B_, 1
	note __, 1
	note B_, 1
	note __, 1
	note B_, 1
	note __, 1
	note B_, 1
	note __, 1
	note B_, 1
	note __, 1
	octave 2
	note C_, 1
	note __, 1
	note C_, 1
	note __, 1
	note C_, 1
	note __, 1
	octave 1
	note B_, 1
	note __, 1
	note B_, 1
	note __, 1
	octave 2
	note C_, 1
	note __, 1
	note C_, 1
	note __, 1
	note C_, 1
	note __, 1
	note C_, 1
	note __, 1
	note C_, 1
	note __, 1
	note C_, 1
	note __, 1
	note C_, 1
	note __, 1
	note C_, 1
	note __, 1
	note C_, 1
	note __, 1
	note C_, 1
	note __, 1
	note C_, 1
	note __, 1
	note D_, 1
	note __, 1
	note D_, 1
	note __, 1
	note D_, 1
	note __, 1
	note C_, 1
	note __, 1
	note C_, 1
	note __, 1
	octave 1
	note B_, 1
	note __, 1
	note B_, 1
	note __, 1
	note B_, 1
	note __, 1
	note B_, 1
	note __, 1
	note B_, 1
	note __, 1
	note B_, 1
	note __, 1
	note B_, 1
	note __, 1
	note B_, 1
	note __, 1
	note B_, 1
	note __, 1
	note B_, 1
	note __, 1
	note B_, 1
	note __, 1
	octave 2
	note C_, 1
	note __, 1
	note C_, 1
	note __, 1
	note C_, 1
	note __, 1
	octave 1
	note B_, 1
	note __, 1
	note B_, 1
	note __, 1
	octave 2
	note C_, 1
	note __, 1
	note C_, 1
	note __, 1
	note C_, 1
	note __, 1
	note C_, 1
	note __, 1
	note C_, 1
	note __, 1
	note C_, 1
	note __, 1
	note C_, 1
	note __, 1
	note C_, 1
	note __, 1
	note C_, 1
	note __, 1
	note C_, 1
	note __, 1
	note C_, 1
	note __, 1
	note D_, 1
	note __, 1
	note D_, 1
	note __, 1
	note D_, 1
	note __, 1
	note C_, 1
	note __, 1
	note C_, 1
	note __, 1
	octave 1
	note B_, 1
	note __, 1
	note B_, 1
	note __, 1
	note B_, 1
	note __, 1
	note B_, 1
	note __, 1
	note B_, 1
	note __, 1
	note B_, 1
	note __, 1
	note B_, 1
	note __, 1
	note B_, 1
	note __, 1
	note B_, 1
	note __, 1
	note B_, 1
	note __, 1
	note B_, 1
	note __, 1
	octave 2
	note C_, 1
	note __, 1
	note C_, 1
	note __, 1
	note C_, 1
	note __, 1
	octave 1
	note B_, 1
	note __, 1
	note B_, 1
	note __, 1
	octave 2
	note C_, 1
	note __, 1
	note C_, 1
	note __, 1
	note C_, 1
	note __, 1
	note C_, 1
	note __, 1
	note C_, 1
	note __, 1
	note C_, 1
	note __, 1
	note C_, 1
	note __, 1
	note C_, 1
	note __, 1
	note C_, 1
	note __, 1
	note C_, 1
	note __, 1
	note C_, 1
	note __, 1
	note D_, 1
	note __, 1
	note D_, 1
	note __, 1
	note D_, 1
	note __, 1
	note C_, 1
	note __, 1
	note C_, 1
	note __, 1
	note D_, 1
	note __, 1
	note D_, 1
	note __, 1
	note D_, 1
	note __, 1
	note D_, 1
	note __, 1
	note D_, 1
	note __, 1
	note D_, 1
	note __, 1
	note D_, 1
	note __, 1
	note D_, 1
	note __, 1
	note D#, 1
	note __, 1
	note D#, 1
	note __, 1
	note D#, 1
	note __, 1
	note D#, 1
	note __, 1
	note D#, 1
	note __, 1
	note D#, 1
	note __, 1
	note D#, 1
	note __, 1
	note D#, 1
	note __, 1
	note E_, 1
	note __, 1
	note E_, 1
	note __, 1
	note E_, 1
	note __, 1
	note E_, 1
	note __, 1
	note E_, 1
	note __, 1
	note E_, 1
	note __, 1
	note E_, 1
	note __, 1
	note E_, 1
	note __, 1
	note D_, 1
	note __, 1
	note D_, 1
	note __, 1
	note D_, 1
	note __, 1
	note D_, 1
	note __, 1
	note D_, 1
	note __, 1
	note D_, 1
	note __, 1
	note D_, 1
	note __, 1
	note D_, 1
	note __, 1
	note C_, 1
	note __, 1
	note C_, 1
	note __, 1
	note C_, 1
	note __, 1
	note C_, 1
	note __, 1
	note C_, 1
	note __, 1
	note C_, 1
	note __, 1
	note C_, 1
	note __, 1
	note C_, 1
	note __, 1
	note D_, 1
	note __, 1
	note D_, 1
	note __, 1
	note D_, 1
	note __, 1
	note D_, 1
	note __, 1
	octave 1
	note B_, 1
	note __, 1
	note B_, 1
	note __, 1
	note B_, 1
	note __, 1
	note B_, 1
	note __, 1
	octave 2
	note E_, 1
	note __, 1
	note E_, 1
	note __, 1
	note E_, 1
	note __, 1
	note E_, 1
	note __, 1
	note E_, 1
	note __, 1
	note E_, 1
	note __, 1
	note E_, 1
	note __, 1
	note E_, 1
	note __, 1
	note C_, 1
	note __, 1
	note C_, 1
	note __, 1
	note C_, 1
	note __, 1
	note C_, 1
	note __, 1
	note C_, 1
	note __, 1
	note C_, 1
	note __, 1
	note C_, 1
	note __, 1
	note C_, 1
	note __, 1
	note G_, 1
	note __, 1
	note G_, 1
	note __, 1
	note G_, 1
	note __, 1
	note G_, 1
	note __, 1
	note G_, 1
	note __, 1
	note G_, 1
	note __, 1
	note G_, 1
	note __, 1
	note G_, 1
	note __, 1
	note D_, 1
	note __, 1
	note D_, 1
	note __, 1
	note D_, 1
	note __, 1
	note A_, 1
	note __, 1
	note A_, 1
	note __, 1
	note A_, 1
	note __, 1
	note F#, 1
	note __, 1
	note F#, 1
	note __, 1
	note E_, 1
	note __, 1
	note E_, 1
	note __, 1
	note E_, 1
	note __, 1
	note E_, 1
	note __, 1
	note E_, 1
	note __, 1
	note E_, 1
	note __, 1
	note E_, 1
	note __, 1
	note E_, 1
	note __, 1
	note D_, 1
	note __, 1
	note D_, 1
	note __, 1
	note D_, 1
	note __, 1
	note D_, 1
	note __, 1
	note D_, 1
	note __, 1
	note D_, 1
	note __, 1
	note D_, 1
	note __, 1
	note D_, 1
	note __, 1
	note C_, 1
	note __, 1
	note C_, 1
	note __, 1
	note C_, 1
	note __, 1
	note C_, 1
	note __, 1
	note C_, 1
	note __, 1
	note C_, 1
	note __, 1
	note C_, 1
	note __, 1
	note C_, 1
	note __, 1
	note D_, 1
	note __, 1
	note D_, 1
	note __, 1
	note D_, 1
	note __, 1
	note D_, 1
	note __, 1
	octave 1
	note B_, 1
	note __, 1
	note B_, 1
	note __, 1
	note B_, 1
	note __, 1
	note B_, 1
	note __, 1
	octave 2
	note E_, 1
	note __, 1
	note E_, 1
	note __, 1
	note E_, 1
	note __, 1
	note E_, 1
	note __, 1
	note E_, 1
	note __, 1
	note E_, 1
	note __, 1
	note E_, 1
	note __, 1
	note E_, 1
	note __, 1
	note C_, 1
	note __, 1
	note C_, 1
	note __, 1
	note C_, 1
	note __, 1
	note C_, 1
	note __, 1
	note C_, 1
	note __, 1
	note C_, 1
	note __, 1
	note C_, 1
	note __, 1
	note C_, 1
	note __, 1
	note G_, 1
	note __, 1
	note G_, 1
	note __, 1
	note G_, 1
	note __, 1
	note G_, 1
	note __, 1
	note G_, 1
	note __, 1
	note G_, 1
	note __, 1
	note G_, 1
	note __, 1
	note G_, 1
	note __, 1
	note D_, 1
	note __, 1
	note D_, 1
	note __, 1
	note D_, 1
	note __, 1
	note A_, 1
	note __, 1
	note A_, 1
	note __, 1
	note A_, 1
	note __, 1
	note F#, 1
	note __, 1
	note F#, 1
	note __, 1
	note C_, 1
	note __, 1
	note C_, 1
	note __, 1
	note C_, 1
	note __, 1
	note C_, 1
	note __, 1
	note C_, 1
	note __, 1
	note C_, 1
	note __, 1
	note C_, 1
	note __, 1
	note C_, 1
	note __, 1
	note C_, 1
	note __, 1
	note C_, 1
	note __, 1
	note C_, 1
	note __, 1
	note D_, 1
	note __, 1
	note D_, 1
	note __, 1
	note D_, 1
	note __, 1
	note C_, 1
	note __, 1
	note C_, 1
	note __, 1
	octave 1
	note B_, 1
	note __, 1
	note B_, 1
	note __, 1
	note B_, 1
	note __, 1
	note B_, 1
	note __, 1
	note B_, 1
	note __, 1
	note B_, 1
	note __, 1
	note B_, 1
	note __, 1
	note B_, 1
	note __, 1
	octave 2
	note E_, 2
	note F_, 2
	note E_, 2
	note D_, 2
	note E_, 2
	note D_, 2
	note C_, 2
	octave 1
	note B_, 2
	loopchannel 0, Music_XVZ_Ch3_loop

Music_XVZ_Ch4:
	togglenoise 3
	notetype $C
	note G#, 1
	note C_, 1
	note A#, 1
	note __, 1
	note A#, 1
	note __, 1
	note A#, 1
	note __, 1
	note G#, 1
	note C_, 1
	note A#, 1
	note __, 1
	note A#, 1
	note __, 1
	note A#, 1
	note C_, 1
Music_XVZ_Ch4_loop:
	notetype $C
	note C_, 1
	note __, 10
	note A#, 1
	note __, 2
	note A#, 1
	note __, 1
	note A#, 1
	note A#, 1
	note __, 6
	note C_, 1
	note A#, 1
	note A#, 1
	note C_, 1
	note A#, 1
	note A#, 1
	note C_, 1
	note A#, 1
	note A#, 1
	note __, 10
	note A#, 1
	note __, 2
	note A#, 1
	note __, 1
	note A#, 1
	note A#, 1
	note __, 6
	notetype $6
	note C#, 1
	note C#, 1
	note C#, 1
	note __, 1
	note C#, 1
	note C#, 1
	note C#, 1
	note C#, 1
	note C#, 1
	note __, 1
	note C#, 1
	note __, 1
	note C#, 1
	note C#, 1
	note C#, 1
	note C#, 1
	note A#, 4
	note C_, 4
	note A#, 2
	note A#, 2
	note C_, 4
	note A#, 4
	note C_, 2
	note A#, 4
	note A#, 2
	note C_, 4
	note A#, 4
	note C_, 4
	note A#, 2
	note A#, 2
	note C_, 4
	note A#, 4
	note C_, 2
	note A#, 4
	note A#, 2
	note C_, 4
	note A#, 4
	note C_, 4
	note A#, 2
	note A#, 2
	note C_, 4
	note A#, 4
	note C_, 2
	note A#, 4
	note A#, 2
	note C_, 4
	note A#, 4
	note C_, 4
	note A#, 2
	note A#, 2
	note C_, 4
	note A#, 4
	note C_, 2
	note A#, 4
	note A#, 2
	note C_, 4
	note C_, 2
	note A#, 2
	note A#, 2
	note C_, 2
	note A#, 2
	note A#, 2
	note C_, 2
	note A#, 2
	note C#, 1
	note C#, 1
	note C#, 1
	note __, 1
	note C#, 1
	note C#, 1
	note C#, 1
	note C#, 1
	note C#, 2
	note C#, 2
	note C#, 1
	note C#, 1
	note C#, 1
	note C#, 1
	note A#, 4
	note C_, 4
	note A#, 2
	note A#, 2
	note C_, 4
	note A#, 4
	note C_, 2
	note A#, 4
	note A#, 2
	note C_, 4
	note A#, 4
	note C_, 4
	note A#, 2
	note A#, 2
	note C_, 4
	note A#, 4
	note C_, 2
	note A#, 4
	note A#, 2
	note C_, 4
	note A#, 4
	note C_, 4
	note A#, 2
	note A#, 2
	note C_, 4
	note A#, 4
	note C_, 2
	note A#, 4
	note A#, 2
	note C_, 4
	note A#, 4
	note C_, 4
	note A#, 2
	note A#, 2
	note C_, 4
	note A#, 4
	note C_, 2
	note A#, 4
	note A#, 2
	note C_, 4
	note A#, 4
	note C_, 4
	note A#, 2
	note A#, 2
	note C_, 4
	note A#, 4
	note C_, 2
	note A#, 4
	note A#, 2
	note C_, 4
	note A#, 4
	note C_, 4
	note A#, 2
	note A#, 2
	note C_, 4
	note A#, 4
	note C_, 2
	note A#, 4
	note A#, 2
	note C_, 4
	note A#, 4
	note C_, 4
	note A#, 2
	note A#, 2
	note C_, 4
	note A#, 4
	note C_, 2
	note A#, 4
	note A#, 2
	note C_, 1
	note C_, 1
	note C_, 1
	note C_, 1
	note C_, 2
	note A#, 2
	note A#, 2
	note C_, 2
	note A#, 2
	note A#, 2
	note C_, 2
	note A#, 2
	note C#, 1
	note C#, 1
	note C#, 1
	note __, 1
	note C#, 1
	note C#, 1
	note C#, 1
	note C#, 1
	note C#, 2
	note C#, 2
	note C#, 1
	note C#, 1
	note C#, 1
	note C#, 1
	note A#, 4
	note C_, 4
	note A#, 2
	note A#, 2
	note C_, 4
	note A#, 4
	note C_, 2
	note A#, 4
	note A#, 2
	note C_, 4
	note A#, 4
	note C_, 4
	note A#, 2
	note A#, 2
	note C_, 4
	note A#, 4
	note C_, 2
	note A#, 4
	note A#, 2
	note C_, 4
	note A#, 4
	note C_, 4
	note A#, 2
	note A#, 2
	note C_, 4
	note A#, 4
	note C_, 2
	note A#, 4
	note A#, 2
	note C_, 4
	note A#, 2
	note A#, 2
	note C_, 4
	note A#, 2
	note A#, 2
	note C_, 4
	note A#, 4
	note C_, 4
	note A#, 2
	note C_, 1
	note C_, 1
	note C_, 1
	note C_, 1
	note C_, 1
	note C_, 1
	note A#, 4
	note C_, 4
	note A#, 2
	note A#, 2
	note C_, 4
	note A#, 4
	note C_, 2
	note A#, 4
	note A#, 2
	note C_, 4
	note A#, 4
	note C_, 4
	note A#, 2
	note A#, 2
	note C_, 4
	note A#, 4
	note C_, 2
	note A#, 4
	note A#, 2
	note C_, 4
	note A#, 4
	note C_, 4
	note A#, 2
	note A#, 2
	note C_, 4
	note A#, 4
	note C_, 2
	note A#, 4
	note A#, 2
	note C_, 4
	note C_, 1
	note C_, 1
	note A#, 2
	note A#, 2
	note C_, 1
	note C_, 1
	note A#, 2
	note A#, 2
	note C_, 2
	note A#, 2
	note C_, 2
	note A#, 2
	note C_, 2
	note A#, 2
	note C_, 1
	note C_, 1
	note C_, 1
	note C_, 1
	note C_, 1
	note C_, 1
	note C_, 1
	note C_, 1
	note A#, 4
	note C_, 2
	note A#, 4
	note A#, 2
	note C_, 4
	note A#, 4
	note C_, 2
	note A#, 4
	note A#, 2
	note C_, 4
	note A#, 4
	note C_, 2
	note A#, 4
	note A#, 2
	note C_, 4
	note A#, 4
	note C_, 2
	note A#, 4
	note A#, 2
	note C_, 4
	note A#, 4
	note C_, 2
	note A#, 4
	note A#, 2
	note C_, 4
	note A#, 4
	note C_, 2
	note A#, 4
	note A#, 2
	note C_, 4
	note C_, 2
	note A#, 2
	note A#, 2
	note C_, 2
	note A#, 2
	note A#, 2
	note C_, 2
	note A#, 2
	note C#, 1
	note C#, 1
	note C#, 1
	note __, 1
	note C#, 1
	note C#, 1
	note C#, 1
	note C#, 1
	note C#, 2
	note C#, 2
	note C#, 1
	note C#, 1
	note C#, 1
	note C#, 1
	note A#, 4
	note C_, 2
	note A#, 4
	note A#, 2
	note C_, 4
	note A#, 4
	note C_, 2
	note A#, 4
	note A#, 2
	note C_, 4
	note A#, 4
	note C_, 2
	note A#, 4
	note A#, 2
	note C_, 4
	note A#, 4
	note C_, 2
	note A#, 4
	note A#, 2
	note C_, 4
	note A#, 4
	note C_, 2
	note A#, 4
	note A#, 2
	note C_, 4
	note A#, 4
	note C_, 2
	note A#, 4
	note A#, 2
	note C_, 4
	note A#, 4
	note C_, 2
	note A#, 4
	note A#, 2
	note C_, 4
	note A#, 4
	note C_, 2
	note A#, 4
	note A#, 2
	note C_, 4
	note A#, 4
	note C_, 2
	note A#, 4
	note A#, 2
	note C_, 4
	note A#, 2
	note A#, 2
	note A#, 2
	note A#, 2
	note A#, 2
	note A#, 2
	note A#, 2
	note A#, 2
	note A#, 6
	notetype $C
	note __, 11
	note A#, 2
	loopchannel 0, Music_XVZ_Ch4_loop

